<svg xmlns="http://www.w3.org/2000/svg" width="1024" height="1024" viewBox="0 0 1024 1024" role="img" aria-label="Astronomical Image Reduction Tool icon">

  <defs>
    <radialGradient id="spaceBg" cx="50%" cy="42%" r="58%">
      <stop offset="0%" stop-color="#12193c"/>
      <stop offset="58%" stop-color="#060b20"/>
      <stop offset="100%" stop-color="#020611"/>
    </radialGradient>
    <linearGradient id="violetBlue" x1="130" y1="170" x2="880" y2="870" gradientUnits="userSpaceOnUse">
      <stop offset="0" stop-color="#b45cff"/>
      <stop offset="0.45" stop-color="#7655ff"/>
      <stop offset="1" stop-color="#18b8ff"/>
    </linearGradient>
    <linearGradient id="violetBlueText" x1="0" y1="0" x2="1" y2="0">
      <stop offset="0" stop-color="#b45cff"/>
      <stop offset="1" stop-color="#18b8ff"/>
    </linearGradient>
    <linearGradient id="whiteTube" x1="405" y1="295" x2="715" y2="555" gradientUnits="userSpaceOnUse">
      <stop offset="0" stop-color="#ffffff"/>
      <stop offset="0.48" stop-color="#f3f6ff"/>
      <stop offset="1" stop-color="#cfd7ef"/>
    </linearGradient>
    <linearGradient id="pixelGrad" x1="130" y1="420" x2="390" y2="710" gradientUnits="userSpaceOnUse">
      <stop offset="0" stop-color="#a855f7"/>
      <stop offset="0.58" stop-color="#6d5dfc"/>
      <stop offset="1" stop-color="#1db7ff"/>
    </linearGradient>
    <filter id="softGlow" x="-50%" y="-50%" width="200%" height="200%">
      <feGaussianBlur stdDeviation="8" result="blur"/>
      <feMerge><feMergeNode in="blur"/><feMergeNode in="SourceGraphic"/></feMerge>
    </filter>
    <filter id="smallGlow" x="-60%" y="-60%" width="220%" height="220%">
      <feGaussianBlur stdDeviation="3" result="b"/>
      <feMerge><feMergeNode in="b"/><feMergeNode in="SourceGraphic"/></feMerge>
    </filter>
    <clipPath id="roundSpace"><circle cx="512" cy="512" r="420"/></clipPath>
    <style>
      .thin { fill:none; stroke:#eff6ff; stroke-width:8; stroke-linecap:round; stroke-linejoin:round; }
      .dash { fill:none; stroke:#1db7ff; stroke-width:5; stroke-linecap:round; stroke-dasharray:14 16; opacity:.9; }
    </style>
  </defs>
  <g>
    <circle cx="512" cy="512" r="420" fill="url(#spaceBg)"/>
    <circle cx="512" cy="512" r="420" fill="none" stroke="url(#violetBlue)" stroke-width="24"/>
    <g clip-path="url(#roundSpace)">
      <circle cx="376.0" cy="223.1" r="1.3" fill="#ffffff" opacity="0.49"/>
    <circle cx="408.4" cy="162.7" r="3.2" fill="#ffffff" opacity="0.57"/>
    <circle cx="461.1" cy="170.4" r="1.3" fill="#ffffff" opacity="0.75"/>
    <circle cx="765.8" cy="205.5" r="1.7" fill="#ffffff" opacity="0.80"/>
    <circle cx="572.3" cy="382.8" r="1.7" fill="#e8f0ff" opacity="0.48"/>
    <circle cx="349.4" cy="218.8" r="1.3" fill="#e8f0ff" opacity="0.76"/>
    <circle cx="204.9" cy="496.3" r="1.7" fill="#ffffff" opacity="0.65"/>
    <circle cx="562.4" cy="527.4" r="2.5" fill="#9bdcff" opacity="0.82"/>
    <circle cx="727.4" cy="427.6" r="2.5" fill="#e8f0ff" opacity="0.65"/>
    <circle cx="740.6" cy="579.3" r="1.7" fill="#cfd7ff" opacity="0.50"/>
    <circle cx="532.0" cy="693.8" r="2.5" fill="#ffffff" opacity="0.61"/>
    <circle cx="216.5" cy="396.8" r="2.1" fill="#9bdcff" opacity="0.53"/>
    <circle cx="451.8" cy="750.3" r="1.3" fill="#cfd7ff" opacity="0.87"/>
    <circle cx="388.6" cy="352.6" r="2.5" fill="#9bdcff" opacity="0.77"/>
    <circle cx="334.2" cy="578.1" r="1.3" fill="#cfd7ff" opacity="0.48"/>
    <circle cx="626.5" cy="770.5" r="2.5" fill="#9bdcff" opacity="0.61"/>
    <circle cx="812.5" cy="350.6" r="2.5" fill="#ffffff" opacity="0.65"/>
    <circle cx="507.6" cy="266.8" r="2.1" fill="#e8f0ff" opacity="0.52"/>
    <circle cx="433.4" cy="720.9" r="2.5" fill="#9bdcff" opacity="0.49"/>
    <circle cx="436.3" cy="305.6" r="1.7" fill="#cfd7ff" opacity="0.90"/>
    <circle cx="672.5" cy="766.2" r="2.5" fill="#e8f0ff" opacity="0.98"/>
    <circle cx="635.4" cy="132.8" r="3.2" fill="#cfd7ff" opacity="0.55"/>
    <circle cx="411.2" cy="493.1" r="1.7" fill="#ffffff" opacity="0.83"/>
    <circle cx="478.9" cy="691.1" r="3.2" fill="#9bdcff" opacity="0.67"/>
    <circle cx="430.4" cy="438.0" r="2.5" fill="#ffffff" opacity="0.48"/>
    <circle cx="888.1" cy="411.4" r="1.3" fill="#ffffff" opacity="0.64"/>
    <circle cx="204.3" cy="493.4" r="3.2" fill="#cfd7ff" opacity="0.51"/>
    <circle cx="600.6" cy="170.7" r="1.7" fill="#e8f0ff" opacity="0.79"/>
    <circle cx="616.7" cy="746.1" r="3.2" fill="#ffffff" opacity="0.65"/>
    <circle cx="214.4" cy="442.2" r="2.5" fill="#cfd7ff" opacity="0.71"/>
    <circle cx="390.5" cy="297.1" r="1.7" fill="#e8f0ff" opacity="0.73"/>
    <circle cx="862.0" cy="468.4" r="1.7" fill="#ffffff" opacity="0.83"/>
    <circle cx="712.6" cy="318.8" r="1.3" fill="#cfd7ff" opacity="0.83"/>
    <circle cx="526.8" cy="715.4" r="2.1" fill="#cfd7ff" opacity="0.87"/>
    <circle cx="618.2" cy="523.6" r="1.7" fill="#9bdcff" opacity="0.89"/>
    <circle cx="698.4" cy="272.4" r="3.2" fill="#ffffff" opacity="0.72"/>
    <circle cx="491.0" cy="250.9" r="3.2" fill="#9bdcff" opacity="0.98"/>
    <circle cx="751.6" cy="595.0" r="2.1" fill="#cfd7ff" opacity="0.98"/>
    <circle cx="489.3" cy="344.5" r="2.5" fill="#ffffff" opacity="0.79"/>
    <circle cx="496.6" cy="549.4" r="1.3" fill="#ffffff" opacity="0.91"/>
    <circle cx="830.1" cy="633.5" r="1.7" fill="#e8f0ff" opacity="0.71"/>
    <circle cx="461.3" cy="538.3" r="1.3" fill="#9bdcff" opacity="0.89"/>
    <circle cx="483.9" cy="608.2" r="1.3" fill="#e8f0ff" opacity="0.85"/>
    <circle cx="582.9" cy="427.5" r="1.7" fill="#9bdcff" opacity="0.79"/>
    <circle cx="634.4" cy="352.8" r="3.2" fill="#ffffff" opacity="0.75"/>
    <circle cx="628.5" cy="467.3" r="1.7" fill="#e8f0ff" opacity="0.69"/>
    <circle cx="765.3" cy="262.2" r="2.1" fill="#e8f0ff" opacity="0.57"/>
    <circle cx="716.9" cy="336.9" r="3.2" fill="#e8f0ff" opacity="0.68"/>
    <circle cx="172.2" cy="605.9" r="2.5" fill="#9bdcff" opacity="0.81"/>
    <circle cx="766.0" cy="695.8" r="1.7" fill="#ffffff" opacity="0.74"/>
    <circle cx="801.4" cy="629.7" r="3.2" fill="#e8f0ff" opacity="0.45"/>
    <circle cx="258.6" cy="432.8" r="1.3" fill="#cfd7ff" opacity="0.76"/>
    <circle cx="653.8" cy="470.0" r="2.5" fill="#ffffff" opacity="0.88"/>
    <circle cx="200.8" cy="418.9" r="1.3" fill="#ffffff" opacity="0.87"/>
    <circle cx="468.5" cy="523.1" r="3.2" fill="#e8f0ff" opacity="0.78"/>
    <circle cx="661.9" cy="419.0" r="3.2" fill="#e8f0ff" opacity="0.89"/>
    <circle cx="666.9" cy="694.7" r="2.1" fill="#e8f0ff" opacity="0.96"/>
    <circle cx="776.0" cy="214.1" r="1.3" fill="#cfd7ff" opacity="0.67"/>
    <circle cx="181.7" cy="560.2" r="1.3" fill="#e8f0ff" opacity="0.94"/>
    <circle cx="853.1" cy="543.2" r="2.1" fill="#e8f0ff" opacity="0.53"/>
    <circle cx="863.2" cy="383.9" r="2.5" fill="#e8f0ff" opacity="0.54"/>
    <circle cx="250.1" cy="405.5" r="3.2" fill="#9bdcff" opacity="0.67"/>
    <circle cx="276.7" cy="332.0" r="2.1" fill="#9bdcff" opacity="0.46"/>
    <circle cx="466.4" cy="136.8" r="2.1" fill="#cfd7ff" opacity="0.73"/>
    <circle cx="522.0" cy="166.8" r="1.7" fill="#ffffff" opacity="0.98"/>
    <circle cx="190.1" cy="301.7" r="1.7" fill="#e8f0ff" opacity="0.60"/>
    <circle cx="760.3" cy="677.2" r="2.1" fill="#9bdcff" opacity="0.67"/>
    <circle cx="667.8" cy="183.2" r="1.3" fill="#e8f0ff" opacity="0.89"/>
    <circle cx="454.6" cy="172.1" r="1.3" fill="#cfd7ff" opacity="0.80"/>
    <circle cx="189.9" cy="681.5" r="1.3" fill="#ffffff" opacity="0.60"/>
    <circle cx="476.7" cy="345.4" r="3.2" fill="#cfd7ff" opacity="0.68"/>
    <circle cx="606.8" cy="153.1" r="1.7" fill="#e8f0ff" opacity="0.97"/>
    <circle cx="328.0" cy="242.7" r="2.1" fill="#e8f0ff" opacity="0.80"/>
    <circle cx="349.7" cy="450.1" r="1.7" fill="#ffffff" opacity="0.60"/>
    <circle cx="139.3" cy="453.7" r="1.7" fill="#e8f0ff" opacity="0.73"/>
    <circle cx="759.7" cy="405.9" r="2.5" fill="#9bdcff" opacity="0.75"/>
    <circle cx="291.8" cy="274.2" r="1.7" fill="#e8f0ff" opacity="0.91"/>
    <circle cx="438.6" cy="350.9" r="1.3" fill="#ffffff" opacity="0.91"/>
    <circle cx="179.8" cy="606.6" r="2.1" fill="#ffffff" opacity="0.69"/>
    <circle cx="190.5" cy="671.8" r="3.2" fill="#cfd7ff" opacity="0.82"/>
    <circle cx="589.1" cy="575.2" r="1.3" fill="#e8f0ff" opacity="0.70"/>
    <circle cx="407.2" cy="338.8" r="3.2" fill="#ffffff" opacity="0.63"/>
    <circle cx="401.4" cy="125.7" r="2.5" fill="#cfd7ff" opacity="0.50"/>
    <circle cx="514.6" cy="255.6" r="3.2" fill="#ffffff" opacity="0.88"/>
    <circle cx="329.7" cy="183.3" r="2.5" fill="#9bdcff" opacity="0.77"/>
    <circle cx="305.4" cy="505.6" r="3.2" fill="#e8f0ff" opacity="0.92"/>
    <circle cx="634.6" cy="590.4" r="3.2" fill="#cfd7ff" opacity="0.66"/>
    <circle cx="683.5" cy="446.2" r="2.1" fill="#e8f0ff" opacity="0.85"/>
    <circle cx="816.3" cy="532.8" r="3.2" fill="#ffffff" opacity="0.53"/>
    <circle cx="765.5" cy="504.6" r="1.7" fill="#ffffff" opacity="0.50"/>
    <circle cx="228.1" cy="359.5" r="1.3" fill="#9bdcff" opacity="0.66"/>
    <circle cx="557.9" cy="533.0" r="3.2" fill="#9bdcff" opacity="0.82"/>
    <circle cx="329.4" cy="422.0" r="1.3" fill="#ffffff" opacity="0.86"/>
    <circle cx="636.0" cy="167.9" r="2.5" fill="#ffffff" opacity="0.59"/>
    <circle cx="780.8" cy="277.6" r="1.7" fill="#9bdcff" opacity="0.58"/>
    <circle cx="507.8" cy="373.7" r="2.5" fill="#cfd7ff" opacity="0.95"/>
    <circle cx="719.4" cy="526.0" r="1.7" fill="#e8f0ff" opacity="0.49"/>
    <circle cx="382.1" cy="548.5" r="2.1" fill="#e8f0ff" opacity="0.79"/>
    <circle cx="333.3" cy="561.8" r="1.7" fill="#cfd7ff" opacity="0.82"/>
    <circle cx="674.4" cy="310.6" r="2.5" fill="#ffffff" opacity="0.71"/>
    <circle cx="894.8" cy="481.9" r="2.1" fill="#9bdcff" opacity="0.99"/>
    <circle cx="138.6" cy="423.3" r="3.2" fill="#9bdcff" opacity="0.98"/>
    <circle cx="704.3" cy="295.2" r="2.1" fill="#cfd7ff" opacity="0.52"/>
    <circle cx="812.3" cy="582.2" r="1.7" fill="#9bdcff" opacity="0.72"/>
    <circle cx="430.4" cy="228.4" r="2.5" fill="#9bdcff" opacity="0.82"/>
    <circle cx="359.0" cy="216.5" r="2.1" fill="#ffffff" opacity="0.66"/>
    <circle cx="706.8" cy="670.4" r="1.3" fill="#e8f0ff" opacity="0.97"/>
    <circle cx="677.6" cy="711.0" r="2.1" fill="#ffffff" opacity="0.59"/>
    <circle cx="429.5" cy="774.2" r="3.2" fill="#9bdcff" opacity="0.49"/>
    <circle cx="710.6" cy="680.3" r="2.1" fill="#cfd7ff" opacity="0.51"/>
    <circle cx="617.1" cy="221.8" r="2.1" fill="#cfd7ff" opacity="0.69"/>
    <circle cx="272.1" cy="367.7" r="2.5" fill="#9bdcff" opacity="0.94"/>
    <circle cx="550.7" cy="592.7" r="1.3" fill="#9bdcff" opacity="0.96"/>
    <circle cx="474.4" cy="614.2" r="2.1" fill="#e8f0ff" opacity="0.72"/>
    <circle cx="257.3" cy="394.7" r="2.1" fill="#cfd7ff" opacity="0.61"/>
    <circle cx="439.8" cy="280.1" r="2.5" fill="#9bdcff" opacity="0.76"/>
    <circle cx="217.8" cy="543.1" r="1.3" fill="#9bdcff" opacity="0.56"/>
    <circle cx="551.5" cy="419.4" r="2.1" fill="#9bdcff" opacity="1.00"/>
    <circle cx="456.3" cy="481.1" r="1.7" fill="#cfd7ff" opacity="0.50"/>
    <circle cx="555.8" cy="332.5" r="2.1" fill="#e8f0ff" opacity="0.59"/>
    <circle cx="812.6" cy="612.3" r="2.5" fill="#e8f0ff" opacity="0.66"/>
    <circle cx="417.1" cy="344.8" r="1.3" fill="#cfd7ff" opacity="0.72"/>
    <circle cx="222.6" cy="452.2" r="1.7" fill="#e8f0ff" opacity="0.50"/>
    <circle cx="423.0" cy="544.8" r="2.5" fill="#ffffff" opacity="0.97"/>
    <circle cx="223.6" cy="401.4" r="2.5" fill="#9bdcff" opacity="0.98"/>
    <circle cx="843.3" cy="661.6" r="2.5" fill="#e8f0ff" opacity="0.98"/>
    <circle cx="731.9" cy="270.5" r="1.7" fill="#ffffff" opacity="0.74"/>
    <circle cx="854.7" cy="594.1" r="2.5" fill="#ffffff" opacity="0.50"/>
    <circle cx="566.3" cy="149.4" r="2.1" fill="#cfd7ff" opacity="0.98"/>
    <circle cx="534.4" cy="409.3" r="1.3" fill="#cfd7ff" opacity="0.50"/>
    <circle cx="531.4" cy="503.9" r="2.5" fill="#ffffff" opacity="0.59"/>
    <circle cx="482.0" cy="748.3" r="1.7" fill="#e8f0ff" opacity="0.71"/>
    <circle cx="548.9" cy="144.0" r="2.5" fill="#cfd7ff" opacity="0.84"/>
    <circle cx="810.8" cy="545.7" r="1.3" fill="#9bdcff" opacity="0.59"/>
    <circle cx="151.4" cy="344.7" r="2.5" fill="#9bdcff" opacity="0.65"/>
    <circle cx="278.5" cy="643.1" r="3.2" fill="#9bdcff" opacity="0.49"/>
    <circle cx="760.5" cy="275.0" r="1.7" fill="#cfd7ff" opacity="0.60"/>
    <circle cx="209.5" cy="530.3" r="3.2" fill="#e8f0ff" opacity="0.55"/>
    <circle cx="500.9" cy="716.8" r="1.3" fill="#e8f0ff" opacity="0.97"/>
    <circle cx="143.3" cy="512.5" r="2.5" fill="#ffffff" opacity="0.48"/>
    <circle cx="267.7" cy="417.3" r="2.1" fill="#ffffff" opacity="0.85"/>
    <circle cx="847.0" cy="339.0" r="1.7" fill="#9bdcff" opacity="0.81"/>
    <circle cx="149.7" cy="556.9" r="2.5" fill="#cfd7ff" opacity="0.91"/>
    <circle cx="467.9" cy="195.8" r="1.3" fill="#cfd7ff" opacity="0.60"/>
    <circle cx="450.6" cy="700.4" r="3.2" fill="#e8f0ff" opacity="0.98"/>
    <path d="M339 289 L342 302 L355 305 L342 308 L339 321 L336 308 L323 305 L336 302 Z" fill="#fff" filter="url(#smallGlow)"/>
    <path d="M614 161 L617 169 L625 172 L617 175 L614 183 L611 175 L603 172 L611 169 Z" fill="#fff" filter="url(#smallGlow)"/>
    <path d="M779 335 L782 344 L791 347 L782 350 L779 359 L776 350 L767 347 L776 344 Z" fill="#fff" filter="url(#smallGlow)"/>
    <path d="M257 523 L260 534 L271 537 L260 540 L257 551 L254 540 L243 537 L254 534 Z" fill="#fff" filter="url(#smallGlow)"/>
    <path d="M842 210 L845 219 L854 222 L845 225 L842 234 L839 225 L830 222 L839 219 Z" fill="#fff" filter="url(#smallGlow)"/>
    <path d="M665 622 L668 628 L674 631 L668 634 L665 640 L662 634 L656 631 L662 628 Z" fill="#fff" filter="url(#smallGlow)"/>
      <g opacity=".92"><ellipse cx="338" cy="278" rx="120.0" ry="40.0" transform="rotate(-22.0 338 278)" fill="none" stroke="#ffffff" stroke-width="5.0" opacity="0.75"/>
      <ellipse cx="338" cy="278" rx="115.0" ry="38.1" transform="rotate(-15.0 338 278)" fill="none" stroke="#ffffff" stroke-width="4.8" opacity="0.71"/>
      <ellipse cx="338" cy="278" rx="110.0" ry="36.2" transform="rotate(-8.0 338 278)" fill="none" stroke="#ffffff" stroke-width="4.6" opacity="0.68"/>
      <ellipse cx="338" cy="278" rx="105.0" ry="34.3" transform="rotate(-1.0 338 278)" fill="none" stroke="#ffffff" stroke-width="4.5" opacity="0.65"/>
      <ellipse cx="338" cy="278" rx="100.0" ry="32.4" transform="rotate(6.0 338 278)" fill="none" stroke="#f6d7ff" stroke-width="4.3" opacity="0.61"/>
      <ellipse cx="338" cy="278" rx="95.0" ry="30.5" transform="rotate(13.0 338 278)" fill="none" stroke="#f6d7ff" stroke-width="4.1" opacity="0.57"/>
      <ellipse cx="338" cy="278" rx="90.0" ry="28.6" transform="rotate(20.0 338 278)" fill="none" stroke="#f6d7ff" stroke-width="3.9" opacity="0.54"/>
      <ellipse cx="338" cy="278" rx="85.0" ry="26.7" transform="rotate(27.0 338 278)" fill="none" stroke="#f6d7ff" stroke-width="3.7" opacity="0.51"/>
      <ellipse cx="338" cy="278" rx="80.0" ry="24.8" transform="rotate(34.0 338 278)" fill="none" stroke="#d39bff" stroke-width="3.6" opacity="0.47"/>
      <ellipse cx="338" cy="278" rx="75.0" ry="22.9" transform="rotate(41.0 338 278)" fill="none" stroke="#d39bff" stroke-width="3.4" opacity="0.43"/>
      <ellipse cx="338" cy="278" rx="70.0" ry="21.0" transform="rotate(48.0 338 278)" fill="none" stroke="#d39bff" stroke-width="3.2" opacity="0.40"/>
      <ellipse cx="338" cy="278" rx="65.0" ry="19.1" transform="rotate(55.0 338 278)" fill="none" stroke="#d39bff" stroke-width="3.0" opacity="0.36"/>
      <ellipse cx="338" cy="278" rx="60.0" ry="17.2" transform="rotate(62.0 338 278)" fill="none" stroke="#9d5cff" stroke-width="2.8" opacity="0.33"/>
      <ellipse cx="338" cy="278" rx="55.0" ry="15.3" transform="rotate(69.0 338 278)" fill="none" stroke="#9d5cff" stroke-width="2.7" opacity="0.29"/>
      <ellipse cx="338" cy="278" rx="50.0" ry="13.4" transform="rotate(76.0 338 278)" fill="none" stroke="#9d5cff" stroke-width="2.5" opacity="0.26"/>
      <ellipse cx="338" cy="278" rx="45.0" ry="11.5" transform="rotate(83.0 338 278)" fill="none" stroke="#9d5cff" stroke-width="2.3" opacity="0.22"/>
      <ellipse cx="338" cy="278" rx="42" ry="24" transform="rotate(-24 338 278)" fill="#fff2ff" opacity=".92" filter="url(#softGlow)"/></g>
      <path d="M170 710 C330 650 535 662 835 610" fill="none" stroke="#eff6ff" stroke-width="10" stroke-linecap="round" opacity=".95"/>
      <circle cx="512" cy="690" r="11" fill="#ffffff" filter="url(#softGlow)"/>
      <rect x="135" y="413" width="25" height="25" rx="3" fill="url(#pixelGrad)" opacity="0.83"/>
      <rect x="135" y="445" width="25" height="25" rx="3" fill="url(#pixelGrad)" opacity="0.85"/>
      <rect x="167" y="445" width="25" height="25" rx="3" fill="url(#pixelGrad)" opacity="0.80"/>
      <rect x="231" y="445" width="25" height="25" rx="3" fill="url(#pixelGrad)" opacity="0.72"/>
      <rect x="135" y="477" width="25" height="25" rx="3" fill="url(#pixelGrad)" opacity="0.61"/>
      <rect x="167" y="477" width="25" height="25" rx="3" fill="url(#pixelGrad)" opacity="0.69"/>
      <rect x="199" y="477" width="25" height="25" rx="3" fill="url(#pixelGrad)" opacity="0.57"/>
      <rect x="263" y="477" width="25" height="25" rx="3" fill="url(#pixelGrad)" opacity="0.65"/>
      <rect x="135" y="509" width="25" height="25" rx="3" fill="url(#pixelGrad)" opacity="0.68"/>
      <rect x="167" y="509" width="25" height="25" rx="3" fill="url(#pixelGrad)" opacity="0.48"/>
      <rect x="199" y="509" width="25" height="25" rx="3" fill="url(#pixelGrad)" opacity="0.48"/>
      <rect x="231" y="509" width="25" height="25" rx="3" fill="url(#pixelGrad)" opacity="0.63"/>
      <rect x="295" y="509" width="25" height="25" rx="3" fill="url(#pixelGrad)" opacity="0.93"/>
      <rect x="199" y="541" width="25" height="25" rx="3" fill="url(#pixelGrad)" opacity="0.79"/>
      <rect x="231" y="541" width="25" height="25" rx="3" fill="url(#pixelGrad)" opacity="0.60"/>
      <rect x="263" y="541" width="25" height="25" rx="3" fill="url(#pixelGrad)" opacity="0.75"/>
      <rect x="295" y="541" width="25" height="25" rx="3" fill="url(#pixelGrad)" opacity="0.92"/>
      <rect x="231" y="573" width="25" height="25" rx="3" fill="url(#pixelGrad)" opacity="0.50"/>
      <rect x="263" y="573" width="25" height="25" rx="3" fill="url(#pixelGrad)" opacity="0.68"/>
      <rect x="295" y="573" width="25" height="25" rx="3" fill="url(#pixelGrad)" opacity="0.84"/>
      <rect x="327" y="573" width="25" height="25" rx="3" fill="url(#pixelGrad)" opacity="0.86"/>
      <rect x="231" y="605" width="25" height="25" rx="3" fill="url(#pixelGrad)" opacity="0.70"/>
      <rect x="295" y="605" width="25" height="25" rx="3" fill="url(#pixelGrad)" opacity="0.60"/>
      <rect x="327" y="605" width="25" height="25" rx="3" fill="url(#pixelGrad)" opacity="0.53"/>
      <rect x="359" y="605" width="25" height="25" rx="3" fill="url(#pixelGrad)" opacity="0.88"/>
      <rect x="263" y="637" width="25" height="25" rx="3" fill="url(#pixelGrad)" opacity="0.84"/>
      <rect x="295" y="637" width="25" height="25" rx="3" fill="url(#pixelGrad)" opacity="0.71"/>
      <rect x="327" y="637" width="25" height="25" rx="3" fill="url(#pixelGrad)" opacity="0.53"/>
      <rect x="359" y="637" width="25" height="25" rx="3" fill="url(#pixelGrad)" opacity="0.77"/>
      <rect x="391" y="637" width="25" height="25" rx="3" fill="url(#pixelGrad)" opacity="0.72"/>
      <rect x="295" y="669" width="25" height="25" rx="3" fill="url(#pixelGrad)" opacity="0.66"/>
      <rect x="327" y="669" width="25" height="25" rx="3" fill="url(#pixelGrad)" opacity="0.49"/>
      <rect x="359" y="669" width="25" height="25" rx="3" fill="url(#pixelGrad)" opacity="0.55"/>
      <rect x="391" y="669" width="25" height="25" rx="3" fill="url(#pixelGrad)" opacity="0.94"/>
      <rect x="423" y="669" width="25" height="25" rx="3" fill="url(#pixelGrad)" opacity="0.54"/>
      
      <g transform="rotate(-34 560 430)">
        <rect x="360" y="350" width="250" height="88" rx="28" fill="url(#whiteTube)" stroke="#07101f" stroke-width="10"/>
        <rect x="588" y="334" width="170" height="118" rx="35" fill="url(#whiteTube)" stroke="#07101f" stroke-width="10"/>
        <ellipse cx="744" cy="393" rx="39" ry="58" fill="#19004d" stroke="#ffffff" stroke-width="10"/>
        <ellipse cx="744" cy="393" rx="26" ry="42" fill="#6d28d9" opacity=".55"/>
        <rect x="287" y="371" width="90" height="46" rx="10" fill="#f8fbff" stroke="#07101f" stroke-width="10"/>
        <path d="M392 441 L590 441" stroke="#07101f" stroke-width="13" stroke-linecap="round" opacity=".95"/>
        <path d="M418 377 L520 377" stroke="#07101f" stroke-width="10" stroke-linecap="round" opacity=".85"/>
      </g>
      <circle cx="510" cy="500" r="42" fill="#f8fbff" stroke="#07101f" stroke-width="12"/>
      <circle cx="510" cy="500" r="13" fill="#07101f"/>
      <path d="M500 538 C494 603 459 644 431 665 L571 665 C544 638 526 599 523 538" fill="#f8fbff" stroke="#07101f" stroke-width="12" stroke-linejoin="round"/>
      <path d="M410 694 C473 683 548 684 607 694" class="thin"/>
    
      
      <path d="M670 638 C720 638 742 637 755 608 C769 576 770 536 780 536 C792 536 790 616 804 616 C818 616 819 590 832 591 C850 594 845 639 872 638 C894 636 895 616 915 618 C932 621 932 638 951 638" fill="none" stroke="#eff6ff" stroke-width="8" stroke-linecap="round" stroke-linejoin="round"/>
      <path d="M650 661 H958" class="dash"/>
      <path d="M780 561 V684" class="dash"/>
    
      
      <g transform="translate(0 0)">
        <rect x="260" y="758" width="145" height="110" rx="22" fill="#07101f" stroke="#a855f7" stroke-width="6"/>
        <g clip-path="url(#thumb1)">
          <rect x="269" y="767" width="127" height="92" fill="#050815"/>
          <ellipse cx="333" cy="811" rx="40" ry="17" transform="rotate(25 333 811)" fill="none" stroke="#b56bff" stroke-width="5" opacity=".85"/>
          <ellipse cx="333" cy="811" rx="22" ry="9" transform="rotate(25 333 811)" fill="#fff" opacity=".75"/>
        </g>
        <clipPath id="thumb1"><rect x="269" y="767" width="127" height="92" rx="16"/></clipPath>
        <path d="M430 812 H484" class="dash"/>
        <path d="M470 795 L492 812 L470 829" fill="none" stroke="#b45cff" stroke-width="7" stroke-linecap="round" stroke-linejoin="round"/>
        <g transform="translate(512 815)">
          <path d="M0 -55 L14 -39 L35 -45 L43 -23 L65 -15 L55 5 L65 27 L42 35 L34 57 L12 50 L-4 66 L-20 49 L-42 56 L-50 34 L-72 26 L-61 5 L-71 -17 L-48 -25 L-40 -47 L-19 -40 Z" fill="url(#violetBlue)"/>
          <circle cx="0" cy="5" r="27" fill="#07101f"/>
        </g>
        <path d="M595 812 H660" class="dash"/>
        <path d="M646 795 L668 812 L646 829" fill="none" stroke="#1db7ff" stroke-width="7" stroke-linecap="round" stroke-linejoin="round"/>
        <rect x="696" y="758" width="145" height="110" rx="22" fill="#07101f" stroke="#1db7ff" stroke-width="6"/>
        <g clip-path="url(#thumb2)">
          <rect x="705" y="767" width="127" height="92" fill="#040814"/>
          <ellipse cx="768" cy="811" rx="37" ry="14" transform="rotate(-18 768 811)" fill="none" stroke="#dce9ff" stroke-width="5" opacity=".95"/>
          <ellipse cx="768" cy="811" rx="21" ry="8" transform="rotate(-18 768 811)" fill="#ffffff" opacity=".9"/>
        </g>
        <clipPath id="thumb2"><rect x="705" y="767" width="127" height="92" rx="16"/></clipPath>
      </g>
    
    </g>
  </g>
</svg>